<svg id="Layer_1" data-name="Layer 1" xmlns="http://www.w3.org/2000/svg" xmlns:xlink="http://www.w3.org/1999/xlink" viewBox="0 0 1920 1084.49"><defs><style>.cls-1{fill:none;}.cls-2{fill:#e44d26;}.cls-3{fill:#f16529;}.cls-4{fill:#ebebeb;}.cls-5{fill:#fff;}.cls-6{fill:#264de4;}.cls-7{fill:#2965f1;}.cls-8{fill:#252f3e;}.cls-9{fill:#f90;}.cls-10{fill:#008ad7;}.cls-11,.cls-12{fill:#004d40;}.cls-11,.cls-22,.cls-23{fill-rule:evenodd;}.cls-13{fill:#ea4335;}.cls-14{fill:#4285f4;}.cls-15{fill:#34a853;}.cls-16{fill:#fbbc05;}.cls-17{fill:#5f6368;}.cls-18{fill:#4e7896;}.cls-19{fill:#f58219;}.cls-20{fill:#dab92d;}.cls-21{fill:#ffd839;}.cls-22{fill:#00678f;}.cls-23{fill:#e38d1a;}.cls-24{fill:#689f63;}.cls-25{fill:#333;}.cls-26{clip-path:url(#clip-path);}.cls-27{fill:url(#linear-gradient);}.cls-28{clip-path:url(#clip-path-2);}.cls-29{fill:url(#linear-gradient-2);}.cls-30{clip-path:url(#clip-path-3);}.cls-31{fill:url(#linear-gradient-3);}.cls-32{fill:#ed1c24;}.cls-33{fill:#6082bb;}.cls-34{fill:#646464;}.cls-35{fill:url(#linear-gradient-4);}.cls-36{fill:url(#linear-gradient-5);}.cls-37{fill:#00d8ff;}.cls-38{fill:#00599c;}.cls-39{fill:#004482;}.cls-40{fill:#659ad2;}</style><clipPath id="clip-path"><path class="cls-1" d="M663.79,63l-19,11a2.32,2.32,0,0,0-1.15,2V98a2.31,2.31,0,0,0,1.15,2l19,11a2.3,2.3,0,0,0,2.3,0l19-11a2.26,2.26,0,0,0,1.15-2V76a2.28,2.28,0,0,0-1.15-2l-19-11a2.32,2.32,0,0,0-2.31,0"/></clipPath><linearGradient id="linear-gradient" x1="-326.76" y1="711.19" x2="-326.22" y2="711.19" gradientTransform="translate(57733.33 69982.41) rotate(116.11) scale(115.31)" gradientUnits="userSpaceOnUse"><stop offset="0.3" stop-color="#3e863d"/><stop offset="0.5" stop-color="#55934f"/><stop offset="0.8" stop-color="#5aad45"/></linearGradient><clipPath id="clip-path-2"><path class="cls-1" d="M644.07,99.35a2.39,2.39,0,0,0,.68.59l16.38,9.44,2.72,1.56a2.31,2.31,0,0,0,1.33.3,2.11,2.11,0,0,0,.45-.08l20-36.78a2.24,2.24,0,0,0-.54-.42l-12.47-7.2L666.08,63a2.89,2.89,0,0,0-.6-.24Z"/></clipPath><linearGradient id="linear-gradient-2" x1="-312.18" y1="703.96" x2="-311.83" y2="703.96" gradientTransform="matrix(142.41, -105.22, 105.22, 142.41, -28972.91, -132993.68)" gradientUnits="userSpaceOnUse"><stop offset="0.57" stop-color="#3e863d"/><stop offset="0.72" stop-color="#619857"/><stop offset="1" stop-color="#76ac64"/></linearGradient><clipPath id="clip-path-3"><path class="cls-1" d="M664.72,62.67a2.36,2.36,0,0,0-.92.29l-19,11,20.48,37.3a2.16,2.16,0,0,0,.82-.28l19-11a2.25,2.25,0,0,0,1.11-1.57L665.38,62.7a3.68,3.68,0,0,0-.47,0h-.18"/></clipPath><linearGradient id="linear-gradient-3" x1="-314.92" y1="699.53" x2="-314.61" y2="699.53" gradientTransform="translate(41549.91 -90774.64) scale(129.89)" gradientUnits="userSpaceOnUse"><stop offset="0.16" stop-color="#6bbf47"/><stop offset="0.38" stop-color="#79b461"/><stop offset="0.47" stop-color="#75ac64"/><stop offset="0.7" stop-color="#659e5a"/><stop offset="0.9" stop-color="#3e863d"/></linearGradient><linearGradient id="linear-gradient-4" x1="479.84" y1="-363.09" x2="540.23" y2="-310.63" gradientTransform="translate(539.06 413.36)" gradientUnits="userSpaceOnUse"><stop offset="0" stop-color="#5a9fd4"/><stop offset="1" stop-color="#306998"/></linearGradient><linearGradient id="linear-gradient-5" x1="563.68" y1="-278.73" x2="542.11" y2="-309.53" gradientTransform="translate(539.06 413.36)" gradientUnits="userSpaceOnUse"><stop offset="0" stop-color="#ffd43b"/><stop offset="1" stop-color="#ffe873"/></linearGradient></defs><polygon class="cls-2" points="955.76 773.66 946.67 671.46 1046.67 671.46 1037.58 773.66 996.53 784.96 955.76 773.66"/><polygon class="cls-3" points="996.81 776.42 1029.59 767.05 1037.58 680 996.81 680 996.81 776.42"/><polygon class="cls-4" points="996.81 717.74 980.28 717.74 978.9 705.07 996.81 705.07 996.81 692.39 996.53 692.39 965.13 692.39 965.68 695.7 968.71 730.41 996.81 730.41 996.81 717.74"/><polygon class="cls-4" points="996.81 750.52 996.53 750.52 982.76 746.66 981.93 736.47 975.05 736.47 969.26 736.47 970.91 756.31 996.53 763.47 996.81 763.47 996.81 750.52"/><path d="M956,643.91h6.33v6.34h5.79v-6.34h6.33v19h-6.33v-6.34h-5.79v6.34H956v-19Z"/><path d="M983,650.25h-5.5v-6.34h17.35v6.34h-5.51v12.67H983V650.25Z"/><path d="M997.64,643.91h6.61l4.13,6.61,4.13-6.61h6.61v19h-6.33v-9.37l-4.14,6.61h-.27l-4.41-6.61v9.37h-6.06l-.27-19Z"/><path d="M1022.15,643.91h6.34v12.67h9.09v6.34h-15.43Z"/><polygon class="cls-5" points="996.53 717.74 996.53 730.41 1011.96 730.41 1010.58 746.66 996.53 750.52 996.53 763.47 1022.15 756.31 1022.43 754.38 1025.46 721.32 1025.73 717.74 1022.43 717.74 996.53 717.74"/><polygon class="cls-5" points="996.53 692.39 996.53 700.38 996.53 704.79 996.53 705.07 1026.84 705.07 1026.84 705.07 1026.84 705.07 1027.11 702.31 1027.66 695.7 1027.94 692.39 996.53 692.39"/><path class="cls-6" d="M1188.06,1052.83l-40.77-11.3-9.09-102.2h100l-9.09,101.93-41,11.57Z"/><path class="cls-7" d="M1221.12,1034.92l7.71-87.33h-40.49V1044l32.78-9.09Z"/><path class="cls-4" d="M1158.86,985.61l1.1,12.67h28.1V985.61Zm-2.2-25.34,1.1,12.67h30.3V960.27Zm31.4,58.12h0l-14-3.85-.82-9.92h-12.68l1.93,19.56,25.62,7.16h0Z"/><path d="M1161.62,911.78h15.15v6.34H1168v6.33h8.82v6.34h-15.15Zm18.18,0H1195v5.51h-8.82v1.1H1195v12.67H1179.8v-5.78h8.81v-1.1h-8.81v-12.4Zm18.18,0h15.15v5.51h-8.81v1.1h8.81v12.67H1198v-5.78h8.81v-1.1H1198v-12.4Z"/><path class="cls-5" d="M1217.26,985.61l2.21-25.34h-31.41v12.67h17.63l-1.1,12.67h-16.53v12.67h15.43l-1.38,16.26-14,3.85v13.23l25.62-7.17.28-2.2,3-33.06.27-3.58Z"/><path class="cls-8" d="M854.82,347.38a25.22,25.22,0,0,0,.82,6.85,50.4,50.4,0,0,0,2.44,5.55,3.26,3.26,0,0,1,.57,1.79,3.1,3.1,0,0,1-1.46,2.29l-4.9,3.26a3.08,3.08,0,0,1-4.32-.33,21.72,21.72,0,0,1-2.77-3.59c-.74-1.3-1.55-2.77-2.37-4.56a28.44,28.44,0,0,1-22.67,10.6c-6.44,0-11.66-1.88-15.41-5.55S799,355.05,799,348.85c0-6.52,2.28-11.91,7-15.9s10.93-6,18.92-6a59,59,0,0,1,8.16.65c2.85.41,5.79,1,8.89,1.72v-5.63c0-5.87-1.23-9.95-3.59-12.32s-6.61-3.5-12.56-3.5a36.91,36.91,0,0,0-8.32,1,69.93,69.93,0,0,0-8.32,2.61,17.17,17.17,0,0,1-2.69,1,4.63,4.63,0,0,1-1.22.24c-1.06,0-1.63-.73-1.63-2.37v-3.75a4.7,4.7,0,0,1,.57-2.69,6,6,0,0,1,2.12-1.63,38.41,38.41,0,0,1,9.7-3.51,47.75,47.75,0,0,1,12-1.46c9.22,0,15.9,2.12,20.23,6.28s6.36,10.52,6.36,19v24.95h.16ZM823.5,359.13a25.57,25.57,0,0,0,7.91-1.39,16.81,16.81,0,0,0,7.34-5,12.58,12.58,0,0,0,2.61-5,26.58,26.58,0,0,0,.74-6.69v-3.26a61.78,61.78,0,0,0-7.1-1.31,56.13,56.13,0,0,0-7.26-.48c-5.13,0-9,1-11.49,3.09s-3.76,5-3.76,8.89c0,3.59.9,6.36,2.86,8.16C817.31,358.23,820,359.13,823.5,359.13Zm61.9,8.31a4.69,4.69,0,0,1-2.93-.73,6.32,6.32,0,0,1-1.63-3l-18-59.61a12.61,12.61,0,0,1-.73-3.1,1.74,1.74,0,0,1,1.87-2h7.59a4.72,4.72,0,0,1,3,.73,6.43,6.43,0,0,1,1.55,3L889,353.91l12-51.06c.41-1.55.82-2.52,1.47-3a5.24,5.24,0,0,1,3.1-.74h6.19a3.83,3.83,0,0,1,4.57,3.75l12.15,51.63,13.38-51.63a6.7,6.7,0,0,1,1.55-3,5,5,0,0,1,3-.74h7.18a1.77,1.77,0,0,1,2,2,7.31,7.31,0,0,1-.16,1.22,11.91,11.91,0,0,1-.58,2l-18.59,59.62a6,6,0,0,1-1.63,3,4.86,4.86,0,0,1-2.94.74H925a5.08,5.08,0,0,1-3.1-.74,5.53,5.53,0,0,1-1.47-3.1l-12-49.74-11.9,49.66a6.11,6.11,0,0,1-1.47,3.1,4.71,4.71,0,0,1-3.1.74H885.4Zm99.09,2.12a53.81,53.81,0,0,1-11.91-1.38,35.77,35.77,0,0,1-8.89-3.1,5.63,5.63,0,0,1-2.36-2.12,5.28,5.28,0,0,1-.49-2.12v-3.92c0-1.63.65-2.36,1.79-2.36a4.24,4.24,0,0,1,1.39.24c.49.17,1.14.49,2,.74a39.65,39.65,0,0,0,8.48,2.69,44.31,44.31,0,0,0,9.21.9c4.9,0,8.65-.82,11.26-2.53a8.34,8.34,0,0,0,4-7.34,7.59,7.59,0,0,0-2.12-5.39c-1.38-1.46-4-2.77-7.74-4l-11.18-3.59c-5.62-1.79-9.78-4.4-12.31-7.83a18.51,18.51,0,0,1-3.83-11.17,17,17,0,0,1,2.12-8.56,20.73,20.73,0,0,1,5.54-6.37,24,24,0,0,1,8-4,34,34,0,0,1,9.71-1.31,34.78,34.78,0,0,1,5.14.33c1.79.24,3.42.57,5,.81,1.55.41,3,.74,4.41,1.23a19.78,19.78,0,0,1,3.26,1.38,6.33,6.33,0,0,1,2.28,2,4,4,0,0,1,.74,2.53v3.59c0,1.63-.66,2.44-1.8,2.44a8.51,8.51,0,0,1-2.93-.89,34.76,34.76,0,0,0-14.85-3c-4.4,0-7.83.73-10.27,2.12a7.42,7.42,0,0,0-3.59,6.85,7.28,7.28,0,0,0,2.28,5.47c1.55,1.46,4.41,2.93,8.48,4.24l10.93,3.5c5.55,1.8,9.54,4.24,12,7.42a17,17,0,0,1,3.51,10.77,20,20,0,0,1-2,9,20.56,20.56,0,0,1-5.63,6.77,23.5,23.5,0,0,1-8.56,4.32A33.45,33.45,0,0,1,984.49,369.56Z"/><path class="cls-9" d="M999.09,407c-25.37,18.75-62.23,28.7-94,28.7-44.45,0-84.41-16.39-114.66-43.71-2.37-2.12-.25-5.06,2.6-3.42,32.71,19,73,30.42,114.75,30.42a229.71,229.71,0,0,0,87.51-17.87C999.66,399.25,1003.25,403.9,999.09,407Zm10.6-12c-3.26-4.16-21.45-2-29.69-1-2.44.33-2.85-1.88-.65-3.51,14.52-10.19,38.33-7.26,41.1-3.83s-.73,27.32-14.35,38.74c-2.12,1.79-4.08.81-3.18-1.47C1006,416.29,1012.87,399.09,1009.69,395Z"/><path class="cls-10" d="M440.54,763.2H425.79l-7.34-20.05h-31.7L380,763.2H365.21l30-78.53h14.69ZM415,732.55l-11.32-31.2a31.15,31.15,0,0,1-1.1-5,39.24,39.24,0,0,1-1.11,5l-10.77,31.2Zm77.09-20-30.59,40.65h30.59V763.2H443.35v-4.92L475.11,717H446.78V707h45.89v5.52Zm61.14,50.7h-13v-8.89a19,19,0,0,1-17.56,10.05c-13.58,0-20.38-7.79-20.38-24V707h13v32.3c0,10.05,4,15,11.87,15a12.4,12.4,0,0,0,9.61-3.93,17.68,17.68,0,0,0,3.92-11.15V707h13Zm49.81-44a12.25,12.25,0,0,0-6.8-1.65c-3.92,0-6.79,1.65-9.6,5s-3.93,7.84-3.93,13.92V763.2h-13V707h13v11.71a21.91,21.91,0,0,1,5.69-9.45,13,13,0,0,1,9-3.37,11.43,11.43,0,0,1,5.08,1.11Zm57.76,19.5h-39.1c0,5,1.71,9.44,5.08,12.26,2.82,2.76,7.35,4.47,13,4.47a27.27,27.27,0,0,0,17.06-5.58v10c-5.14,3.37-11.93,5-20.43,5a26.73,26.73,0,0,1-19.83-7.84c-5.08-5-7.34-12.26-7.34-21.71a29.58,29.58,0,0,1,7.84-21.15A25.9,25.9,0,0,1,637,705.87c7.85,0,13.59,2.21,18.12,7.24s6.24,11.71,6.24,20.6Zm-12.43-8.89c0-4.48-1.1-8.34-3.36-10.61a10.66,10.66,0,0,0-9.06-3.92,12.38,12.38,0,0,0-9.61,3.92c-2.82,2.76-3.92,6.13-4.53,10.61Z"/><path class="cls-10" d="M282.43,661.14l-26.17,52.74,46.11,53.4L216.77,777l132.76,1.38Zm-5.19-20.82-60.08,50.31L172.54,765.9l38-3.81Z"/><path class="cls-11" d="M62.66,945.31v71.33c-7.59,1.43-11.57,2-17.61,2-18.09,0-27.51-8.09-27.51-23.6,0-14.94,10-24.63,25.47-24.63a24.05,24.05,0,0,1,6.45.75V945.31Zm-13.2,37.63a15.14,15.14,0,0,0-5-.76c-7.49,0-11.82,4.57-11.82,12.57,0,7.79,4.14,12.09,11.72,12.09a34.34,34.34,0,0,0,5.1-.38V982.94Z"/><path class="cls-11" d="M85.22,968.13v37.33c0,11.71-.87,18.18-3.45,23-2.4,4.67-5.57,7.61-12.11,10.86l-13.74-6.48c6.54-3,9.71-5.73,11.73-9.83s2.78-9.89,2.78-22.65V968.12H85.22Z"/><rect class="cls-12" x="70.43" y="945.31" width="14.79" height="15.3"/><path class="cls-11" d="M95,972.81a42.58,42.58,0,0,1,19.22-4.48c7.46,0,12.35,2,14.52,6,1.21,2.24,1.6,5.15,1.6,11.4v30.49a154.94,154.94,0,0,1-20.71,1.66c-12.16,0-17.62-4.38-17.62-14.13,0-10.53,7.25-15.4,25-16.95v-3.3c0-2.73-1.32-3.71-5-3.71A37.22,37.22,0,0,0,95,984.42Zm22.72,23.86c-9.6,1-12.72,2.54-12.72,6.44,0,2.92,1.79,4.29,5.75,4.29a39.19,39.19,0,0,0,7-.67V996.67Z"/><path class="cls-11" d="M138.34,971.78a83,83,0,0,1,22.8-3.46c7.43,0,12.82,1.79,16,5.25,3,3.26,4,6.83,4,14.45v29.91H166.59v-29.3c0-5.85-1.89-8-7.06-8a20.68,20.68,0,0,0-6.69,1.1v36.24h-14.5Z"/><path class="cls-11" d="M187.75,1024.31a33.14,33.14,0,0,0,15.86,4c9.71,0,13.84-2.67,13.84-12.27v-.3a20.06,20.06,0,0,1-9.61,2.07c-13,0-21.09-8.73-21.09-22.55,0-17.16,12.08-26.86,33.7-26.86a91.76,91.76,0,0,1,19.33,2.16l-5.08,10.89c-3.94-.78-.32-.12-3.29-.41v1.58l.19,6.37.1,8.24c.09,2.07.09,4.12.19,6.18v4.12c0,13-1.07,17.66-4.24,22.68-4.61,7.34-12.6,11-24,11a41.51,41.51,0,0,1-15.95-2.94v-13.94Zm29.41-43.74h-1.55a15.88,15.88,0,0,0-8.56,2.16c-3.54,2-5.38,5.79-5.38,11.07,0,7.54,3.66,11.86,10.2,11.86a18.16,18.16,0,0,0,5.57-1v-5.21c0-1.77-.1-3.73-.1-5.79l-.09-7-.1-5v-1.16Z"/><path class="cls-11" d="M263.27,968.13c15.53,0,25,9.36,25,24.52,0,15.55-9.88,25.29-25.63,25.29-15.55,0-25.14-9.36-25.14-24.42C237.54,977.87,247.42,968.13,263.27,968.13ZM263,1006c6,0,9.48-4.72,9.48-12.94s-3.43-12.94-9.38-12.94c-6.17,0-9.69,4.73-9.69,12.94S256.91,1006,263,1006Z"/><g id="Layer_2" data-name="Layer 2"><g id="Art"><path class="cls-13" d="M710.61,926.41h3.48L724,916.5l.49-4.21A44.57,44.57,0,0,0,652,934a5.33,5.33,0,0,1,3.48-.21l19.83-3.27s1-1.67,1.53-1.57a24.73,24.73,0,0,1,33.85-2.57Z"/><path class="cls-14" d="M738.12,934a44.54,44.54,0,0,0-13.46-21.7l-13.91,13.91a24.69,24.69,0,0,1,9.08,19.62v2.47a12.39,12.39,0,0,1,0,24.77H695.06l-2.47,2.51v14.85l2.47,2.47h24.77A32.22,32.22,0,0,0,738.12,934Z"/><path class="cls-15" d="M670.25,992.78H695V973H670.25a12.36,12.36,0,0,1-5.07-1.12l-3.48,1.08-10,9.91-.87,3.48A32,32,0,0,0,670.25,992.78Z"/><path class="cls-16" d="M670.25,928.46a32.21,32.21,0,0,0-19.44,57.74l14.37-14.36a12.38,12.38,0,1,1,16.38-16.38l14.36-14.33A32.13,32.13,0,0,0,670.25,928.46Z"/><path class="cls-17" d="M611.71,1034.13a13.29,13.29,0,0,1-9.86-22.37l.33-.33a13.14,13.14,0,0,1,9.53-4,12.72,12.72,0,0,1,9.13,3.7l-2.57,2.61a9.5,9.5,0,0,0-13.35.29,9.65,9.65,0,0,0,13.51,13.79,7.6,7.6,0,0,0,2-4.49h-8.68v-3.69H624a11.3,11.3,0,0,1,.14,2.25,11.51,11.51,0,0,1-3.16,8.52A12.3,12.3,0,0,1,611.71,1034.13Zm28.47-2.41a8.66,8.66,0,1,1,0-12.27A8.75,8.75,0,0,1,640.18,1031.72Zm-9.53-2.41a4.69,4.69,0,0,0,6.61.22l.22-.22a5.53,5.53,0,0,0,0-7.46,4.73,4.73,0,0,0-6.71-.14h0l-.14.14a5.55,5.55,0,0,0,0,7.46h0Zm28.32,2.41a8.66,8.66,0,1,1,0-12.27A8.85,8.85,0,0,1,659,1031.72Zm-9.53-2.41a4.69,4.69,0,0,0,6.61.22l.22-.22a5.53,5.53,0,0,0,0-7.46,4.75,4.75,0,0,0-6.71-.14l-.14.14a5.55,5.55,0,0,0,0,7.46h0Zm21.88,12.57a7.65,7.65,0,0,1-4.81-1.53,9,9,0,0,1-2.8-3.55l3.29-1.37a5.57,5.57,0,0,0,1.63,2.15,4.16,4.16,0,0,0,2.7.91,4.33,4.33,0,0,0,3.36-1.3,5.27,5.27,0,0,0,1.2-3.75v-1.24h-.13a5.51,5.51,0,0,1-4.48,1.93,7.9,7.9,0,0,1-5.77-2.51,8.72,8.72,0,0,1,0-12.14,7.83,7.83,0,0,1,5.77-2.53,6.26,6.26,0,0,1,2.66.59,5.22,5.22,0,0,1,1.88,1.37H676v-1.37h3.58v15.39a9,9,0,0,1-2.3,6.71,8.05,8.05,0,0,1-5.88,2.24Zm.26-11.09a4.17,4.17,0,0,0,3.26-1.44,5.29,5.29,0,0,0,1.31-3.7,5.4,5.4,0,0,0-1.31-3.77,4.17,4.17,0,0,0-3.26-1.44,4.47,4.47,0,0,0-3.38,1.44,5.29,5.29,0,0,0-1.44,3.74,5.2,5.2,0,0,0,1.44,3.7,4.47,4.47,0,0,0,3.42,1.48Zm14.28-22.37v25.23h-3.73v-25.23Zm10.32,25.71a8.24,8.24,0,0,1-6-2.42,8.42,8.42,0,0,1-2.44-6.12,8.54,8.54,0,0,1,2.35-6.18,7.76,7.76,0,0,1,5.77-2.41,7.3,7.3,0,0,1,2.89.56A6.65,6.65,0,0,1,701,1019a9.65,9.65,0,0,1,1.44,1.75,9.9,9.9,0,0,1,.85,1.69l.39,1-11.57,4.69a4.34,4.34,0,0,0,4.16,2.6,4.93,4.93,0,0,0,4.23-2.38l2.89,2a9.4,9.4,0,0,1-2.77,2.63A7.91,7.91,0,0,1,696.18,1034.13Zm-4.82-8.85,7.68-3.19a2.6,2.6,0,0,0-1.2-1.31,3.85,3.85,0,0,0-2-.51,4.46,4.46,0,0,0-3.1,1.37,4.6,4.6,0,0,0-1.33,3.69Z"/><path class="cls-17" d="M723.35,1034.13a11.88,11.88,0,0,1-12.09-11.68h0V1022a11.9,11.9,0,0,1,11.61-12.17h.48a10.77,10.77,0,0,1,8.56,3.81l-2.08,2a7.82,7.82,0,0,0-6.47-3,8.83,8.83,0,0,0-6.42,2.57,10,10,0,0,0,0,13.46,8.87,8.87,0,0,0,6.42,2.57,9.16,9.16,0,0,0,7.22-3.38l2.08,2.08a11.37,11.37,0,0,1-4,3A12.3,12.3,0,0,1,723.35,1034.13Z"/><path class="cls-17" d="M738.25,1033.66h-3v-23.32h3Z"/><path class="cls-17" d="M743.18,1019.62a8.35,8.35,0,0,1,11.78,0,9.09,9.09,0,0,1,0,12.13,8.35,8.35,0,0,1-11.78,0A9.12,9.12,0,0,1,743.18,1019.62Zm2.22,10.25a5,5,0,0,0,7.07.25l0,0,.2-.2a6.42,6.42,0,0,0,0-8.37,5,5,0,0,0-7.06-.25l-.06,0-.2.2a6.4,6.4,0,0,0,0,8.36Z"/><path class="cls-17" d="M773.78,1033.66h-2.89v-2.21h-.09a5.55,5.55,0,0,1-2.11,2,5.83,5.83,0,0,1-3,.79,5.67,5.67,0,0,1-4.53-1.82,7.28,7.28,0,0,1-1.55-4.88v-9.82h3V1027c0,3,1.32,4.46,3.94,4.46a3.65,3.65,0,0,0,3-1.44,5.4,5.4,0,0,0,1.17-3.45v-8.84h3v15.94Z"/><path class="cls-17" d="M783.93,1034.13a7,7,0,0,1-5.34-2.44,9.31,9.31,0,0,1,0-12.1,7,7,0,0,1,5.34-2.44,6.71,6.71,0,0,1,3.26.78,5.45,5.45,0,0,1,2.17,2h.13l-.13-2.21v-7.38h3v23.32h-2.89v-2.21h-.13a5.45,5.45,0,0,1-2.17,1.95A6.86,6.86,0,0,1,783.93,1034.13Zm.49-2.73a4.74,4.74,0,0,0,3.59-1.56,6.82,6.82,0,0,0,0-8.4,4.88,4.88,0,0,0-6.89-.32l-.32.32a6.8,6.8,0,0,0,0,8.37,4.76,4.76,0,0,0,3.62,1.64Z"/></g></g><g id="layer1"><g id="Ebene_1"><g id="_198302696" data-name=" 198302696"><path id="_227268128" data-name=" 227268128" class="cls-18" d="M375.87,347.74s-8.62,5.25,6,6.75c17.63,2.26,27,1.88,46.5-1.87a70.29,70.29,0,0,0,12.38,6c-43.88,18.75-99.38-1.13-64.88-10.88Zm-5.62-24.37s-9.38,7.12,5.25,8.62c19.12,1.88,34.12,2.25,60-3a23,23,0,0,0,9,5.63c-52.88,15.75-112.13,1.5-74.25-11.25Zm103.5,42.75s6.38,5.25-7.12,9.38c-25.13,7.5-105.38,9.75-127.89,0-7.87-3.38,7.13-8.25,12-9a37.3,37.3,0,0,1,7.51-1.13c-8.63-6-57.38,12.38-24.76,17.63,89.63,14.62,163.51-6.38,140.26-16.88ZM380,297.87s-40.88,9.75-14.63,13.12c11.25,1.5,33.38,1.13,54-.37,16.88-1.5,33.76-4.5,33.76-4.5A89.67,89.67,0,0,0,443,311.37c-41.63,10.87-121.51,6-98.63-5.25,19.5-9.38,35.63-8.25,35.63-8.25Zm73.13,40.87c42-21.75,22.5-42.75,9-40.12a23.46,23.46,0,0,0-4.88,1.5,6.45,6.45,0,0,1,3.75-3c26.63-9.38,47.63,28.12-8.62,42.75a4.94,4.94,0,0,0,.75-1.13Zm-69,59.26c40.5,2.62,102.38-1.5,103.88-20.63,0,0-3,7.5-33.37,13.13-34.51,6.37-77.26,5.62-102.38,1.5,0,0,5.25,4.5,31.87,6Z"/><path id="_230367536" data-name=" 230367536" class="cls-19" d="M427.62,174.11s23.26,23.63-22.12,59.25c-36.38,28.88-8.25,45.38,0,64.13-21.38-19.12-36.75-36-26.25-51.75,15.37-23.25,57.75-34.5,48.37-71.63Zm-12,107.63c10.88,12.38-3,23.63-3,23.63s27.76-14.25,15-31.88C416,256.61,407,248.36,455.75,220.24c0,0-76.88,19.12-40.13,61.5ZM387.87,483.13V446.38c0-9.38-5.25-15.76-18.37-15.76a51.47,51.47,0,0,0-19.5,4.13l1.87,6.75a44.43,44.43,0,0,1,15-3c7.13,0,10.5,3,10.5,9v4.88h-3.75c-18,0-26.25,6.75-26.25,17.62,0,9,5.63,14.25,15.75,14.25,6.38,0,11.25-3,15.75-6.75l.75,5.63Zm-10.5-12c-3.75,3.37-7.87,5.25-11.62,5.25-4.88,0-7.88-3-7.88-8.25s3-9,15-9h4.5v12Zm45.75,12H410l-15.75-51.38H405.5l9.75,31.5,2.25,9.38c4.87-13.5,8.62-27.38,10.13-40.88h11.25c-3,16.88-8.25,35.25-15.76,51.38Zm60.76,0V446.38c0-9.38-5.25-15.76-18.38-15.76a51.51,51.51,0,0,0-19.5,4.13l1.5,6.75a48.71,48.71,0,0,1,15.38-3c7.12,0,10.5,3,10.5,9v4.88h-3.75c-18,0-26.25,6.75-26.25,17.62,0,9,5.25,14.25,15.37,14.25,6.75,0,11.63-3,16.13-6.75l.75,5.63Zm-10.5-12c-3.75,3.37-7.88,5.25-11.63,5.25-4.87,0-7.87-3-7.87-8.25s3-9,15-9h4.5v12ZM335.74,491.75a24.92,24.92,0,0,1-13.12,9.75l-4.88-6c3.75-2.25,7.5-5.62,9-8.62,1.5-2.63,1.88-6.38,1.88-15V413.37h11.25v57.76c0,11.62-1.13,16.12-4.13,20.62Z"/></g></g></g><polygon class="cls-20" points="1381.82 683.28 1481.82 683.28 1473.03 785.2 1431.82 797.01 1390.34 785.2 1381.82 683.28"/><polygon class="cls-21" points="1431.82 691.52 1431.82 788.5 1465.06 778.61 1472.48 691.52 1431.82 691.52"/><polygon class="cls-5" points="1428.52 703.61 1428.52 775.03 1405.44 767.89 1403.8 748.11 1413.69 748.11 1414.79 757.73 1418.36 758.83 1416.43 703.61 1428.52 703.61"/><polygon class="cls-5" points="1434.02 703.61 1434.02 741.52 1446.38 741.52 1445.55 758 1434.02 761.3 1434.02 775.03 1456.82 768.17 1460.39 729.15 1446.93 729.15 1446.93 716.52 1461.49 716.52 1463.14 703.61 1434.02 703.61"/><polygon points="1423.58 656.35 1423.58 668.44 1421.1 668.44 1421.1 667.34 1415.34 667.34 1415.34 673.66 1429.35 673.66 1429.35 656.35 1423.58 656.35"/><polygon points="1432.37 656.35 1448.3 656.35 1448.3 660.75 1440.61 660.75 1448.58 668.44 1448.58 673.66 1432.37 673.66 1432.37 668.99 1440.06 668.99 1432.09 661.3 1432.37 656.35"/><path class="cls-22" d="M1357,375.61h9.1V340.05l14.06,30.87c1.66,3.86,3.86,5.24,8.27,5.24s6.62-1.38,8.27-5.24l14.06-30.87v35.56h9.1V340.05c0-3.59-1.38-5.24-4.41-6.07-6.89-2.2-11.3-.27-13.51,4.41L1388.15,369l-13.51-30.6c-1.93-4.68-6.62-6.34-13.51-4.41-2.76.83-4.14,2.48-4.14,6.07v35.56Z"/><path class="cls-22" d="M1427,346.66h9.09v19.58c0,1.1.28,3.58,5.24,3.58h19.58V346.39H1470v32c0,8-9.65,9.65-14.33,9.65H1427V382h28.39c5.79-.55,5.24-3.58,5.24-4.41v-2.48h-19c-8.82,0-14.61-4.14-14.61-8.55V346.66Z"/><path class="cls-22" d="M1620.82,324.06a32.51,32.51,0,0,0-13.51,1.93c-1.1.55-2.76.55-2.76,1.65.56.55.56,1.38,1.11,2.21a12.75,12.75,0,0,0,3.58,4.13c1.38,1.1,3,2.21,4.41,3.31,2.76,1.65,5.79,2.76,8.27,4.41,1.66,1.1,3,2.21,4.69,3.31.83.55,1.38,1.38,2.2,1.93v-.28c-.55-.55-.55-1.65-1.1-2.2a14,14,0,0,0-2.2-1.93,28.31,28.31,0,0,0-7.17-6.89c-2.21-1.66-7.17-3.59-8-6.07h-.27c1.65-.27,3.31-.83,4.68-1.1,2.49-.55,4.42-.55,6.9-1.1a15.83,15.83,0,0,0,3.3-1.11v-.55c-1.37-1.38-2.2-3-3.58-4.13a108.85,108.85,0,0,0-11.3-8.55c-2.21-1.38-5-2.2-7.17-3.58-.83-.55-2.2-.55-2.76-1.38-1.37-1.66-1.93-3.59-2.75-5.24-1.93-3.86-3.86-8-5.79-12.13-1.38-2.76-1.93-5.51-3.59-8-7.16-11.86-14.88-18.75-26.74-25.92a27.51,27.51,0,0,0-8.82-2.75c-1.65,0-3.58-.28-5.24-.28-1.1-.55-2.2-1.93-3.3-2.48-3-2.48-13.24-8-16-.83-1.93,4.41,2.75,8.82,4.41,11.3,1.1,1.66,2.75,3.31,3.58,5.24a22.56,22.56,0,0,0,.83,3.59,87.67,87.67,0,0,0,3.58,9.09c.83,1.38,1.66,3,2.48,4.41.55.83,1.66,1.11,1.66,2.49-1.11,1.37-1.11,3.58-1.66,5.23-2.48,7.72-1.65,17.37,1.93,23.16,1.1,1.65,3.86,5.51,7.17,4.14,3-1.38,2.48-5.24,3.31-8.55.27-.83,0-1.38.55-1.93v.28a56.16,56.16,0,0,1,2.76,5.78,41.84,41.84,0,0,0,9.09,9.38c1.66,1.38,3,3.31,5,4.13v-.27h-.28c-.55-.55-1.1-.83-1.65-1.38a24.11,24.11,0,0,1-3.59-4.14,74.66,74.66,0,0,1-7.72-12.68,71.84,71.84,0,0,1-3-6.61c-.55-.83-.55-2.21-1.1-2.49-1.1,1.66-2.48,2.76-3.31,4.69-1.38,3-1.38,6.62-1.93,10.48-.28,0-.28,0-.28.27-2.2-.55-3-2.75-3.86-4.68-2.2-5-2.48-12.68-.55-18.47.55-1.38,2.48-6.07,1.66-7.45-.55-1.38-1.93-2.2-2.48-3A35,35,0,0,1,1542,278c-1.66-3.86-2.49-8.27-4.42-12.13a22,22,0,0,0-3.58-5.24c-1.38-1.93-2.76-3.31-3.86-5.51-.27-.83-.83-1.93-.27-2.76.27-.55.55-.83,1.1-.83.83-.82,3.58.28,4.41.56a32.68,32.68,0,0,1,6.89,3.58c1.1.83,1.93,1.93,3.31,2.48h1.38c2.2.55,4.68.28,6.89.83a54.9,54.9,0,0,1,9.92,4.68,59.65,59.65,0,0,1,21.51,23.71c.82,1.66,1.1,3,1.93,4.69,1.38,3.31,3.31,6.89,4.68,10.2a37.85,37.85,0,0,0,5,9.37c1.1,1.38,5.23,2.21,7.16,3,1.38.56,3.59,1.11,4.69,1.93a60.88,60.88,0,0,1,6.89,4.69c1.66-.55,5,1.38,5.24,2.76Z"/><path class="cls-22" d="M1550.52,264c-1.1,0-1.93.28-2.76.28v.27h.28a23.59,23.59,0,0,0,2.21,2.76l1.65,3.31v-.28c.83-.55,1.1-1.65,1.1-3.31a3.67,3.67,0,0,0-.82-1.38c-.28-.82-1.11-1.1-1.66-1.65Z"/><path class="cls-23" d="M1476.64,375.61h25.91a19.25,19.25,0,0,0,8.27-1.65c3.86-1.93,5.79-4.14,5.79-7.45V359.9c0-2.49-2.2-5-6.34-6.62a22.53,22.53,0,0,0-7.72-1.38h-11c-3.59,0-5.52-1.1-5.79-3.58v-5.79c.55-1.93,1.38-2.48,4.68-2.76h26.47v-6.06h-25.36a25.2,25.2,0,0,0-7.45.82c-5.24,1.66-7.72,4.41-7.72,8.83v5.23c0,4.14,4.69,7.45,12.41,8.27H1502c2.76.28,4.14.83,5,1.93a2.36,2.36,0,0,1,.83,1.66v5.24a4,4,0,0,1-1.38,2.2c-.82.83-2.2,1.1-3.86,1.38h-25.63v6.34Z"/><path class="cls-23" d="M1572.85,365.13c0,6.07,4.69,9.65,13.79,10.2.82,0,1.65.28,2.75.28h23.44v-6.07h-23.71c-5.24,0-7.17-1.37-7.17-4.41V334h-9.1v31.15Z"/><path class="cls-23" d="M1522.4,365.41v-21.5c0-5.52,3.86-8.83,11.31-9.93h22c7.44,1.1,11.3,4.41,11.3,9.93v21.5c0,4.41-1.65,6.89-5.24,8.27l8.83,8h-10.48l-7.17-6.61-7.17.55h-9.64a18.78,18.78,0,0,1-5.24-.83c-5.52-1.38-8.55-4.41-8.55-9.37Zm9.93-.55c0,.27.27.55.27.83.55,2.48,2.76,3.85,6.34,3.85h8.27l-7.44-6.89H1550l6.62,6.07a4.09,4.09,0,0,0,2.2-3V343.63c-.55-2.48-2.75-3.58-6.34-3.58h-13.51c-4.13,0-6.61,1.65-6.61,4.41v20.4Z"/><path class="cls-23" d="M1617,375.61h1.38v-5H1620v-1.11h-5v1.11H1617v5Zm9.92,0h1.38v-6.07h-1.93l-1.65,4.14-1.65-4.14h-1.93v6.07h1.1v-4.69h0l1.65,4.69h.83l1.65-4.69h0v4.69Z"/><g id="Layer_2-2" data-name="Layer 2"><g id="Layer_1-2" data-name="Layer 1-2"><path class="cls-24" d="M690,157.16a3.83,3.83,0,0,1-1.89-.51l-6-3.57c-.9-.5-.46-.68-.16-.78a11.91,11.91,0,0,0,2.69-1.23.45.45,0,0,1,.45,0l4.63,2.75a.61.61,0,0,0,.56,0l18.06-10.43a.55.55,0,0,0,.28-.49V122.07a.56.56,0,0,0-.28-.5l-18.05-10.41a.56.56,0,0,0-.56,0l-18.05,10.42a.61.61,0,0,0-.29.49v20.84a.58.58,0,0,0,.28.48l5,2.86c2.69,1.34,4.33-.24,4.33-1.83V123.85a.53.53,0,0,1,.52-.52h2.29a.52.52,0,0,1,.52.52v20.58c0,3.58-2,5.64-5.35,5.64a7.67,7.67,0,0,1-4.16-1.13L670,146.21a3.82,3.82,0,0,1-1.89-3.3V122.07a3.81,3.81,0,0,1,1.89-3.29l18.12-10.43a4,4,0,0,1,3.8,0L710,118.78a3.81,3.81,0,0,1,1.85,3.29v20.84A3.8,3.8,0,0,1,710,146.2l-18.06,10.43a3.71,3.71,0,0,1-1.9.51"/><path class="cls-24" d="M695.56,142.79c-7.9,0-9.56-3.63-9.56-6.67a.53.53,0,0,1,.52-.52h2.33a.52.52,0,0,1,.52.44c.35,2.38,1.4,3.58,6.18,3.58,3.81,0,5.43-.86,5.43-2.88,0-1.16-.46-2-6.37-2.6-5-.49-8-1.58-8-5.53,0-3.64,3.07-5.81,8.22-5.81,5.78,0,8.65,2,9,6.32a.47.47,0,0,1-.14.4.49.49,0,0,1-.38.17H701a.53.53,0,0,1-.51-.41c-.57-2.5-1.93-3.3-5.64-3.3-4.15,0-4.64,1.45-4.64,2.53,0,1.32.57,1.7,6.18,2.44s8.19,1.78,8.19,5.68-3.28,6.19-9,6.19m22-22.1h.59a.52.52,0,0,0,.59-.46.14.14,0,0,0,0-.09c0-.53-.37-.53-.57-.53h-.62ZM716.8,119h1.33c.46,0,1.37,0,1.37,1a.89.89,0,0,1-.74,1c.54,0,.57.39.65.89a4.22,4.22,0,0,0,.2,1h-.83c0-.18-.15-1.18-.15-1.23a.35.35,0,0,0-.41-.33h-.68v1.56h-.76ZM715.19,121a2.92,2.92,0,1,0,3-2.88h0a2.93,2.93,0,0,0-2.91,2.91m6.4,0a3.48,3.48,0,1,1-3.49-3.51,3.47,3.47,0,0,1,3.49,3.51"/><path class="cls-25" d="M634.05,75.6a2.31,2.31,0,0,0-1.16-2l-19.15-11a2.28,2.28,0,0,0-1-.3h-.2a2.35,2.35,0,0,0-1.06.3l-19.15,11a2.36,2.36,0,0,0-1.16,2v29.68a1.16,1.16,0,0,0,.57,1,1.08,1.08,0,0,0,1.15,0l11.38-6.52a2.29,2.29,0,0,0,1.16-2V83.89a2.35,2.35,0,0,1,1.16-2l4.89-2.82a2.4,2.4,0,0,1,1.16-.31,2.28,2.28,0,0,1,1.15.31l4.84,2.79a2.31,2.31,0,0,1,1.16,2V97.75a2.34,2.34,0,0,0,1.16,2l11.37,6.52a1.1,1.1,0,0,0,1.16,0,1.13,1.13,0,0,0,.57-1Zm90.36,15.47a.53.53,0,0,1-.29.5l-6.58,3.79a.55.55,0,0,1-.58,0l-6.58-3.79a.6.6,0,0,1-.25-.5V83.46a.61.61,0,0,1,.28-.5l6.57-3.8a.6.6,0,0,1,.58,0l6.58,3.8a.59.59,0,0,1,.29.5Zm1.78-56.24a1.16,1.16,0,0,0-1.57.46,1.29,1.29,0,0,0-.15.54V65.21a.81.81,0,0,1-.81.81.83.83,0,0,1-.4-.11l-4.8-2.76a2.32,2.32,0,0,0-2.31,0L697,74.2a2.35,2.35,0,0,0-1.16,2V98.32a2.34,2.34,0,0,0,1.16,2l19.14,11.06a2.32,2.32,0,0,0,2.31,0l19.16-11.07a2.29,2.29,0,0,0,1.16-2V43.19a2.3,2.3,0,0,0-1.19-2ZM790,83.28a2.26,2.26,0,0,0,1.15-2V75.9a2.29,2.29,0,0,0-1.15-2l-19-11a2.34,2.34,0,0,0-2.32,0l-19.19,11a2.35,2.35,0,0,0-1.16,2V98a2.35,2.35,0,0,0,1.17,2l19,10.85a2.3,2.3,0,0,0,2.27,0l11.51-6.4a1.15,1.15,0,0,0,.44-1.57,1.21,1.21,0,0,0-.44-.43L763,91.42a1.16,1.16,0,0,1-.58-1V83.49a1.18,1.18,0,0,1,.58-1L769,79a1.16,1.16,0,0,1,1.1,0l6,3.46a1.14,1.14,0,0,1,.58,1V89a1.14,1.14,0,0,0,1.74,1Z"/><path class="cls-24" d="M769.5,82.23a.43.43,0,0,1,.44,0l3.68,2.12a.44.44,0,0,1,.22.38V89a.43.43,0,0,1-.22.38l-3.68,2.12a.43.43,0,0,1-.44,0l-3.67-2.12a.47.47,0,0,1-.23-.38V84.73a.49.49,0,0,1,.22-.38Z"/><g class="cls-26"><path class="cls-27" d="M705.54,72.07,651.87,45.78l-27.52,56.14L678,128.23Z"/></g><g class="cls-28"><path class="cls-29" d="M620.86,79.87l37.9,51.29,50.12-37L671,42.84Z"/></g><g class="cls-30"><path class="cls-31" d="M644.8,62.66v48.57h41.45V62.66Z"/></g><rect class="cls-1" x="591.13" y="24.07" width="200" height="143.68"/></g></g><g id="Layer_2-3" data-name="Layer 2"><g id="design"><path class="cls-32" d="M1621.69,1014h22.66l-12-19.3-21.94,34.86h-10l26.72-41.75a6.41,6.41,0,0,1,10.4,0l26.8,41.89h-10l-4.67-7.79h-22.92l-5-7.88Zm103.78,7.79V985.46h-8.56v39.86a4.12,4.12,0,0,0,1.21,3,4.22,4.22,0,0,0,3.12,1.28h38.67l5.14-7.79h-39.58Zm-140.24-6.47a14.89,14.89,0,0,0,0-29.77h-37.12v44.15h8.57V993.33h27.91a7.07,7.07,0,0,1,7.09,7.06,1.2,1.2,0,0,1,0,.19,7.16,7.16,0,0,1-7.09,7.19h-23.85l25.33,21.92h12.27l-16.95-14.44ZM1496,1029.55a22,22,0,1,1,0-44.09h25.6a22,22,0,1,1,0,44.09Zm25.09-7.77a14.27,14.27,0,1,0,0-28.53h-24.47a14.27,14.27,0,1,0,0,28.53H1521Zm161,7.77a22,22,0,1,1,0-44.09h30.45l-5,7.79h-24.86a14.28,14.28,0,1,0,0,28.56h30.54l-5,7.88h-26Zm103.68-7.77a14.39,14.39,0,0,1-13.7-10.36h36.21l5-7.79H1771.9a14.4,14.4,0,0,1,13.7-10.37h24.92l5-7.79h-30.32a22,22,0,0,0,0,44.1h26.21l5-7.81h-30.69Z"/><rect class="cls-1" x="1473.91" y="930.36" width="342.52" height="154.13"/></g></g><g id="Layer_2-4" data-name="Layer 2"><g id="Layer_1-2-2" data-name="Layer 1-2"><rect class="cls-1" x="32.1" y="12.89" width="239.73" height="166.05"/><path class="cls-33" d="M80.84,77.16c7.51,0,12.35,1.32,14.78,4.19s3.08,7.51,1.76,14.11-4,11.91-7.73,14.78S80,114.58,72,114.58H60.11l7.27-37.51ZM33.41,152.61h19.4l4.63-23.88H74.22A58.58,58.58,0,0,0,92.3,126.3a35.77,35.77,0,0,0,13-7.73,41.46,41.46,0,0,0,8-9.92,42.88,42.88,0,0,0,4.34-11.91c2-10.6.43-19-4.63-24.7S99.52,63.2,88.28,63.2H50.84Z"/><path class="cls-33" d="M132,39.22h19.54l-4.62,23.87h17.21c10.85,0,18.32,2,22.51,5.73s5.3,9.92,3.75,18.32l-8.24,41.64H162.56l7.62-39.49c.89-4.34.65-7.51-.89-9.27s-4.78-2.43-9.7-2.43H144.15l-10,51.19H114.81Z"/><path class="cls-33" d="M233.06,77.16c7.51,0,12.35,1.32,14.79,4.19s3.08,7.51,1.75,14.11-4,11.91-7.72,14.78-9.71,4.34-17.65,4.34h-12l7.27-37.51Zm-47.43,75.45H205l4.62-23.88h16.76a58.5,58.5,0,0,0,18.08-2.43,35.73,35.73,0,0,0,13-7.73,41.17,41.17,0,0,0,7.94-9.92,42.57,42.57,0,0,0,4.34-11.91c2-10.6.44-19-4.62-24.7s-13.46-8.84-24.7-8.84H203.06L185.7,152.54Z"/></g></g><path class="cls-34" d="M1197.86,101.84q0-21.48-12.25-22.08a23,23,0,0,0-9.5,1.53,14,14,0,0,0-5,2.61v34.2c5.22,3.28,9.9,4.82,13.92,4.55,8.57-.47,12.85-7.43,12.85-20.81Zm10.1.6c0,7.3-1.74,13.32-5.15,18.14a19,19,0,0,1-15.93,8.36c-5.08.2-10.37-1.47-15.79-4.82v31.12l-8.77-3.14v-69a19.91,19.91,0,0,1,5.56-4.55c5.22-3,11.58-4.62,19-4.68l.14.13a17.58,17.58,0,0,1,15.79,8.37c3.41,5.21,5.15,11.91,5.15,20.07Zm53.61,20.41c0,9.77-1,16.53-3,20.28s-5.69,6.76-11.24,9a42.69,42.69,0,0,1-14.52,2.88l-1.47-5.55a78.87,78.87,0,0,0,11.17-2.15c4.28-1.47,7.16-3.68,8.77-6.62,1.27-2.41,1.94-7,1.94-13.79v-2.27a45.75,45.75,0,0,1-18.87,4.08,17.51,17.51,0,0,1-11.45-4.08,14,14,0,0,1-5.55-11.31V76.88l8.77-3v36.74c0,3.94,1.27,7,3.81,9.1s5.82,3.14,9.84,3.07,8.36-1.67,12.91-4.68V75.27h8.77l.07,47.58Zm34.26,5.69-2.88.13c-5,0-8.83-1.2-11.58-3.54a12.37,12.37,0,0,1-4.14-9.84V80.76h-6V75.27h6V60.55L1286,57.4V75.2h9.84v5.49H1286V115c0,3.28.87,5.62,2.68,7,1.54,1.14,3.95,1.74,7.23,1.94v4.62Zm53.13-.74h-8.76V93.94a16,16,0,0,0-2.41-8.9,8.77,8.77,0,0,0-7.7-4.21c-4,0-9,2.14-15,6.35v40.56h-8.77V46.83l8.7-2.74V81a30.61,30.61,0,0,1,18.4-6.16,14.64,14.64,0,0,1,11.31,4.69A16.6,16.6,0,0,1,1349,91.13L1349,127.8Zm46.65-27.3c0-5.49-1.07-10-3.15-13.65a13.14,13.14,0,0,0-11.51-7c-9.63.53-14.39,7.43-14.39,20.61,0,6.09,1,11.11,3,15.19,2.54,5.15,6.42,7.7,11.57,7.63,9.57-.07,14.46-7.7,14.46-22.82Zm9.57.07c0,7.83-2,14.39-6,19.6-4.41,5.83-10.5,8.77-18.27,8.77s-13.71-2.94-18-8.77c-3.94-5.21-5.89-11.71-5.89-19.6,0-7.36,2.15-13.59,6.36-18.61a21.94,21.94,0,0,1,17.67-8,22.3,22.3,0,0,1,17.8,8c4.22,5,6.36,11.18,6.36,18.61Zm50.32,27.23h-8.77V92c0-4-1.2-7-3.54-9.17s-5.49-3.28-9.44-3.14a21.08,21.08,0,0,0-11.84,4.08v44.1h-8.84V82.63A43.36,43.36,0,0,1,1427,75.41a41.12,41.12,0,0,1,10.58-1.54,28.07,28.07,0,0,1,5.89.6,17.27,17.27,0,0,1,8.43,4.42,11.75,11.75,0,0,1,3.61,8.63V127.8Z"/><path class="cls-35" d="M1075.66,47.17A74.32,74.32,0,0,0,1063,48.24c-11.17,1.94-13.18,6.09-13.18,13.71V72h26.43v3.35h-36.33c-7.7,0-14.39,4.62-16.47,13.38-2.4,10-2.54,16.33,0,26.84,1.88,7.83,6.36,13.38,14.06,13.38h9.1v-12a16.79,16.79,0,0,1,16.46-16.4h26.37a13.25,13.25,0,0,0,13.18-13.38V62c0-7.16-6-12.51-13.18-13.71a85.94,85.94,0,0,0-13.79-1.07Zm-14.25,8.09a5,5,0,1,1-5,5A5,5,0,0,1,1061.41,55.26Z"/><path class="cls-36" d="M1105.91,75.41V87.12c0,9.1-7.7,16.73-16.46,16.73h-26.37a13.42,13.42,0,0,0-13.18,13.38v25.16c0,7.16,6.22,11.38,13.18,13.39a44.32,44.32,0,0,0,26.37,0c6.62-1.94,13.18-5.83,13.18-13.39v-10h-26.37V129h39.55c7.7,0,10.51-5.36,13.19-13.39,2.74-8.29,2.61-16.19,0-26.83-1.88-7.63-5.49-13.38-13.19-13.38Zm-14.79,63.64a5,5,0,1,1-4.95,5A5,5,0,0,1,1091.12,139.05Z"/><path class="cls-34" d="M1472.57,67.37h1.53V57.74h3.62V56.6h-8.84v1.14h3.62l.07,9.63m6.55,0h1.34V58.54l2.88,8.83h1.47l3-8.76v8.76h1.4V56.6h-1.87L1484,65.84l-2.74-9.24h-2.15V67.37"/><g id="Layer_2-5" data-name="Layer 2"><g id="design-2" data-name="design"><circle class="cls-37" cx="1799.59" cy="117.85" r="16.91"/><path class="cls-37" d="M1799.59,157.41c-23.79,0-44.64-2.82-60.28-8.14-21.69-7.43-35.16-19.46-35.16-31.42,0-11.51,12.47-22.74,33.37-30,17-5.91,39-9.16,62.07-9.16,22.6,0,44.35,3.19,61.23,9,21.42,7.4,34.21,18.7,34.21,30.24,0,12-13.94,24-36.39,31.46C1842.92,154.53,1821.94,157.41,1799.59,157.41Zm0-69c-21.67,0-43.13,3.14-58.87,8.62-18.44,6.45-26.85,15.35-26.85,20.87,0,6.18,9.82,15.79,28.58,22.21,14.64,5,34.4,7.62,57.14,7.62,21.34,0,41.23-2.7,56-7.6,20.42-6.75,29.71-16.25,29.71-22.23,0-5.54-8.65-14.48-27.65-21C1841.77,91.36,1821.15,88.36,1799.59,88.36Z"/><path class="cls-37" d="M1761.24,203a18.8,18.8,0,0,1-9.48-2.34c-10-5.75-13.5-22.18-9.36-43.93,3.36-17.62,11.55-38.34,23.06-58.35h0c11.35-19.65,25-36.89,38.41-48.56,17.1-14.91,33.28-20.32,43.28-14.57,10.36,6,13.84,24.09,9.1,47.23-3.35,16.27-11.35,35.88-22.52,55.22-11.92,20.62-24.78,37.3-37.2,48.15C1783.83,197,1771.15,203,1761.24,203Zm12.65-99.79c-10.83,18.79-18.82,39-21.94,55.3-3.65,19.19-.14,30.92,4.66,33.68,5.36,3.1,18.6-.62,33.52-13.67,11.62-10.18,23.78-26,35.17-45.69,10.66-18.46,18.27-37,21.41-52.32,4.31-21,.72-33.86-4.44-36.85-4.79-2.76-16.86.27-32,13.45-12.62,11-25.54,27.35-36.37,46.09Z"/><path class="cls-37" d="M1838,203c-9.39,0-21.21-5.6-33.45-16.14-13.55-11.66-27.4-29.09-39-49.08h0c-11.35-19.63-19.47-40-22.89-57.53-4.34-22.24-1-39,9-44.76,10.39-6,27.8,0,45.45,15.7,12.42,11,25.41,27.74,36.59,47.08,12,20.68,20,40.14,23.13,56.27,4.45,22.49.78,40.18-9.59,46.14A18.42,18.42,0,0,1,1838,203Zm-64-70.1c10.9,18.8,24.36,35.78,36.93,46.59,14.78,12.74,26.72,15.56,31.52,12.77,5.35-3.08,8.75-16.38,4.9-35.83-3-15.09-10.57-33.52-22-53.28-10.66-18.47-23-34.33-34.63-44.68-15.37-13.65-28.8-17.64-34.15-14.56-4.8,2.78-8.21,14.76-4.37,34.48,3.22,16.44,11,35.8,21.77,54.51Z"/><path class="cls-37" d="M1759.15,271.43l-11.38-16.88c5.8-.53,10.81-4.75,10.81-12.13,0-7.65-5.54-12.66-12.92-12.66h-16.61v41.66h5.27V254.81h8.17l10.56,16.62Zm-14-20.84h-10.83V234.77h10.83c5,0,8.17,3.16,8.17,7.91s-3.43,7.91-8.17,7.91Zm33.23,21.62q7.51,0,11.87-4.75l-2.37-3.16a13.2,13.2,0,0,1-9.26,3.7c-6.59,0-10.55-4.75-10.81-10.55h24.53v-1.32c0-9-5.27-16.09-14.5-16.09-8.7,0-14.77,7.12-14.77,15.82,0,10,6.33,16.35,15.29,16.35Zm9.49-17.67h-19.79c.26-4.75,3.43-10,9.76-10a9.81,9.81,0,0,1,10,9.6v.41Zm35.6,16.88V250.86c0-7.38-5.27-10.28-11.6-10.28a15.92,15.92,0,0,0-12.13,5l2.11,3.16a11.7,11.7,0,0,1,9.23-4.22c4.48,0,7.65,2.37,7.65,6.33v5.54c-2.37-2.9-5.8-4.22-10-4.22-5,0-10.55,3.16-10.55,10,0,6.59,5.54,10,10.55,10a13,13,0,0,0,10-4.22v3.43Zm-12.92-2.37c-4.48,0-7.38-2.64-7.38-6.59s3.16-6.59,7.38-6.59c3.43,0,6.59,1.32,8.17,3.69v5.8c-1.58,2.37-5,3.69-8.17,3.69Zm35.6,3.16a13.27,13.27,0,0,0,11.08-5.27l-3.16-2.9a9.3,9.3,0,0,1-7.65,4c-6.33,0-10.28-5-10.28-11.6s4-11.6,10.28-11.6a8.92,8.92,0,0,1,7.65,4l3.16-2.9a13.23,13.23,0,0,0-11.08-5.37c-9,0-15,6.86-15,15.82s6.06,15.82,15,15.82Zm25.31,0a7.72,7.72,0,0,0,5.54-1.85l-1.32-3.43a4,4,0,0,1-3.16,1.32c-2.11,0-3.16-1.58-3.16-4V245.58h6.07v-4.22h-6.07v-8.17h-4.75v8.17h-5v4.22h5v19.78c0,4.48,2.37,6.86,6.86,6.86Z"/></g></g><path class="cls-38" d="M1837.58,605.43a13.54,13.54,0,0,0,1.94-6.52v-73a13.55,13.55,0,0,0-1.94-6.53l-74.51,43Z"/><path class="cls-39" d="M1769.69,646.87l63.21-36.5a13.52,13.52,0,0,0,4.68-4.94l-74.51-43-74.51,43a13.52,13.52,0,0,0,4.68,4.94l63.21,36.5A14.7,14.7,0,0,0,1769.69,646.87Z"/><path class="cls-40" d="M1837.58,519.39a13.52,13.52,0,0,0-4.68-4.94L1769.69,478a14.7,14.7,0,0,0-13.24,0l-63.21,36.5a14.68,14.68,0,0,0-6.62,11.47v73a13.54,13.54,0,0,0,1.94,6.52l74.51-43Z"/><path class="cls-5" d="M1763.07,613.38a51,51,0,1,1,44.14-76.47l-22.06,12.76a25.48,25.48,0,1,0,0,25.48l22.06,12.76a51.16,51.16,0,0,1-44.14,25.47Z"/><path class="cls-5" d="M1808.37,553.92h-5.66v5.66h-5.66v5.66h5.66v5.67h5.66v-5.67H1814v-5.66h-5.67Zm21.24,0H1824v5.66h-5.67v5.66H1824v5.67h5.66v-5.67h5.66v-5.66h-5.66Z"/><rect class="cls-1" width="1920" height="1080"/></svg>