<svg xmlns="http://www.w3.org/2000/svg" viewBox="0 0 200 90"><defs><style>.cls-1{fill:#ed1c24;}.cls-2{fill:none;}</style></defs><title>oracle-small-logo</title><g id="Layer_2" data-name="Layer 2"><g id="design"><path class="cls-1" d="M86.29,48.83H99.52l-7-11.27L79.71,57.92H73.88l15.6-24.38a3.73,3.73,0,0,1,6.07,0L111.2,58h-5.86l-2.73-4.55H89.23l-2.94-4.6Zm60.6,4.55V32.17h-5V55.45a2.38,2.38,0,0,0,.71,1.72,2.46,2.46,0,0,0,1.82.75H167L170,53.37H146.89ZM65,49.6a8.69,8.69,0,0,0,0-17.38H43.33V58h5V36.77H64.63A4.13,4.13,0,0,1,68.77,41a4.18,4.18,0,0,1-4.14,4.2H50.7L65.49,58h7.17l-9.9-8.43ZM12.87,57.92a12.87,12.87,0,1,1,0-25.75H27.82a12.87,12.87,0,0,1,0,25.75H12.87Zm14.65-4.54a8.33,8.33,0,1,0,0-16.66H13.23a8.33,8.33,0,1,0,0,16.66Zm94,4.54a12.87,12.87,0,0,1,0-25.75h17.78l-2.93,4.55H121.85a8.34,8.34,0,1,0,0,16.68h17.83L136.75,58h-15.2Zm60.54-4.54a8.41,8.41,0,0,1-8-6.05H195.2l2.93-4.55H174a8.4,8.4,0,0,1,8-6.05h14.55l2.93-4.55H181.78a12.87,12.87,0,0,0,0,25.75h15.3L200,53.37H182.08Z"/><rect class="cls-2" width="200" height="90"/></g></g></svg>