<svg id="Layer_1" data-name="Layer 1" xmlns="http://www.w3.org/2000/svg" viewBox="0 0 911.74 960.65"><defs><style>.cls-1{fill:#e7b89f;}.cls-2{fill:#c85044;}.cls-3{fill:#d1605a;}.cls-4{fill:#c4b7b5;}.cls-5{fill:#24292d;}.cls-6{fill:#b92025;}.cls-7{fill:#1e1a19;}.cls-8{fill:#363c3f;}.cls-9{fill:none;}</style></defs><path class="cls-1" d="M694.83,733.55l89.23-62.43S800.66,715,816.27,724L703.8,766.87S685,777.72,671.14,781c0,0-15.75,4-38.34,1.81,0,0-29.46-4.13-43.81-19.48,0,0-1.35-4.88,3.81-4.43a320.54,320.54,0,0,0,41,7.23s11.66-.29,18.3-6c0,0,.88-5.76-4.13-8.56,0,0-7.75-2.95-14-13.88,0,0-4.13-11.21,5.1-18.15a22.91,22.91,0,0,1,15.35-5.39s4.94,2.58,1.77,8.12c0,0-5.76,1.18-10.7,7.45,0,0-1.7,3.18.51,5.76,0,0,.81,3.47,7.46,6.42,0,0,6.64,3.39,21,.52,0,0,5.24-2.73,3.91-6.87,0,0-1.47-8.56-18.82-13.8,0,0-5.68-5.61,1.48-8.71C661.07,713,681.36,712.22,694.83,733.55Z" transform="translate(-568.07 -21.15)"/><path class="cls-2" d="M818.48,725.47s23,6.75,24.25-17.6c0,0-42.7-30.56-42.7-67.31,0,0-14.61-8.56-20.07,8.56l4.1,22S802.65,719.6,816.27,724Z" transform="translate(-568.07 -21.15)"/><path class="cls-3" d="M795.75,638.42l29.38-65.61s8.56-30.7,21.55-45.75c0,0,3.24-5.91,22.43-11.81,0,0,15.06-5.61,71.44-15.35,0,0,13.43,13.73,35.72,44.87l3.25-5,9.3,7.68-7.09,228.92,20.37,18.31,21-19L1010.22,548l9.15-8.86,3.69,5.46s24.06-40,30-44.72c0,0,57.42,9.3,79.41,18.89,0,0,12.84,2.22,19.93,16.39,0,0,7.23,8.7,18.3,42.8l27,60.52s4.43,29.37-40.88,67.15a688,688,0,0,1-37.5-61.55s-7.67,40.89-9.74,67.31-5.46,44,10,99.93l-105.83,51.95L876.2,794.51s11.8-35.42,9.74-64.06-4.13-44.28-11.81-85.9c0,0-18.35,39.15-35.2,60.37,0,0-37-23.62-38.9-64.36Z" transform="translate(-568.07 -21.15)"/><path class="cls-2" d="M1156.79,705.65l-2.11,3.55s-2.32,16.82,20.37,17.27c0,0,33.32-19,43-79.16,0,0-4.24-12.21-20.33-8.81C1197.67,638.5,1201.73,668.46,1156.79,705.65Z" transform="translate(-568.07 -21.15)"/><path class="cls-1" d="M1214.75,663l81.52,59.24s11.51-19.48,34.31-20.37c0,0,7.75,2.66,2.66,9.08,0,0-17.49,2.88-19.48,15.5,0,0-2.22,4.42,7.53,5.53a38.91,38.91,0,0,0,16.6,0s5.76-1.77,8.64-9.08c0,0,1.1-8.19-9.08-11.07,0,0-6.64-7.08,2.66-9.07,0,0,17.49,2,17.93,18.59,0,0,1.55,11.52-11.07,16.39s-7.09,18.59,9.3,17.27,40.51-6.87,40.51-6.87,10.63-.7,2.88,7-37.19,16.51-37.19,16.51-12.18,2.88-33.43,0-33-13.5-33-13.5l-109.74-41.07S1203.42,705.19,1214.75,663Z" transform="translate(-568.07 -21.15)"/><path class="cls-4" d="M924.76,917.76,886.45,928.6s-13.83,2.55-26.23-1.66l-30-9.18s-10.63-4.87-18.38,0-9.52,15.6-9.52,15.6S798,950.19,837,979.08c0,0,6.31,4.88,33.43,1.55,0,0,10-2.54,31.55-1.66a52.83,52.83,0,0,0,20.48-4.76,121.05,121.05,0,0,1,24-12.17S929.07,933.59,924.76,917.76Z" transform="translate(-568.07 -21.15)"/><path class="cls-4" d="M1103.5,910.52,1147,924.4a44.61,44.61,0,0,0,19.19,0c10-2.36,6.59-3.25,31.56-8.71s26.45,17,26.45,17,.15,7.09-6.94,14.32c0,0-9.59,17.71-24.35,26.57,0,0-4.14,3.69-15.65,5.76,0,0-9.15.73-23-3.25,0,0-9.6-2.95-25.83-2.22,0,0-15.21-1.18-27.16-7.82l-18.75-10.77S1091.4,940.93,1103.5,910.52Z" transform="translate(-568.07 -21.15)"/><path class="cls-5" d="M946.45,962l67.61-22.88,64.66,22.32,3.82-6.23s15.35-26.28,21-44.73h-1.92s82.22-23.32,175.79-59.33c0,0,42.81-13.29,22.74-72,0,0-19.49-51.66-71.15-25.39,0,0-114,55.2-215.2,109.52,0,0-67-40.15-227.31-114.24,0,0-36-15.65-59.63,26,0,0-23,53.13,15.95,72.62l180.07,62.28.49,8.23A466.24,466.24,0,0,0,946.45,962Z" transform="translate(-568.07 -21.15)"/><path class="cls-6" d="M979.77,539.85" transform="translate(-568.07 -21.15)"/><polygon class="cls-2" points="408.85 525.23 372.27 479.64 377.69 468.36 430.05 492.87 408.85 525.23"/><polygon class="cls-2" points="455.4 524.15 430.05 492.87 481.31 468.36 487.04 478.99 455.4 524.15"/><path class="cls-1" d="M906.3,300.57l146.83-48.92s49.6,18.08,49.15,59.78-35.47,144.35-35.47,144.35L928.7,440.53S891,309.63,906.3,300.57Z" transform="translate(-568.07 -21.15)"/><path class="cls-7" d="M896.83,288.8S899,360.05,913.61,417c0,0,10.18,39.19,40.51,59.56,0,0,45.83,30.11,97.86-1.33,0,0,31-17.27,42.73-76.16,0,0,8.2-30,12.92-100.22,0,0,30.4-84.43-39.56-96.83,0,0-3.21-7.09,16.55-4.13,0,0-8.87-6.5-23.34-2.37,0,0-37.78-64.94-154.09,20.37,0,0-68.08,12.93-.89,84.73,0,0,48.41,3.24,140.52-43.4,0,0,23-4.43,32.17,15.35,0,0,5.61,27.46,19.78,27.46,0,0-3.24,112.44-45.46,133.86,0,0-45.46-64.23-101.55,0,0,0-42.51-13.13-45.16-136.82Z" transform="translate(-568.07 -21.15)"/><path class="cls-1" d="M946.79,490s2.61-6.26,2.2-17.31c0,0,35.63,33.28,96.7,6,0,0-.45,4.17,2.64,11.34L1000.05,515l-3.28.94Z" transform="translate(-568.07 -21.15)"/><path class="cls-5" d="M997.9,515.58h0a3.35,3.35,0,0,1,3.54,1.13l16,20.07a3.35,3.35,0,0,1-.29,4.5l-5.86,5.67a3.38,3.38,0,0,0-1,2.6L1023,774a3.37,3.37,0,0,1-1.09,2.67l-17.54,15.93a3.34,3.34,0,0,1-4.49,0l-17-15.23a3.34,3.34,0,0,1-1.11-2.6l7-225.75a3.36,3.36,0,0,0-1.2-2.67l-5.43-4.55a3.35,3.35,0,0,1-.58-4.51l14.53-20.46A3.36,3.36,0,0,1,997.9,515.58Z" transform="translate(-568.07 -21.15)"/><path class="cls-1" d="M982,426.23c2.87,1.78,17.3,9.5,40.24-.05a2.42,2.42,0,0,1,1.83,0c1,.4,2,1.4-.64,3.79-4.05,3.68-21.52,21.66-44.59.33a2.49,2.49,0,0,1-.4-.46c-.61-.94-2.21-3.91,2.23-3.95A2.41,2.41,0,0,1,982,426.23Z" transform="translate(-568.07 -21.15)"/><path d="M950.16,340s2.82,4.4,11.15,5.93a19.67,19.67,0,0,0,12.29-6.23s5.31-2.21,3.82,3.82c0,0-2.77,6.64-15,8.19,0,0-7.25.44-15.67-7.58C946.75,344.09,945.48,339.66,950.16,340Z" transform="translate(-568.07 -21.15)"/><path d="M1030,340.24s2.83,4.4,11.16,5.92a19.68,19.68,0,0,0,12.28-6.22s5.32-2.22,3.82,3.82c0,0-2.76,6.64-15,8.19,0,0-7.25.44-15.66-7.59C1026.64,344.36,1025.37,339.94,1030,340.24Z" transform="translate(-568.07 -21.15)"/><path class="cls-1" d="M1106.27,314.26l-7,61.3S1124.28,336.87,1106.27,314.26Z" transform="translate(-568.07 -21.15)"/><path class="cls-1" d="M897.84,314.26l7,61.3S880.44,343.07,897.84,314.26Z" transform="translate(-568.07 -21.15)"/><path class="cls-7" d="M1003.85,322.68l-2.54,1.93L999,322.68H905.9l1.42,7.34,14.61.64,11.81,37,61-.73,7.38-38.24,8.56,39h58.74l12.55-37.94h15.59l1.11-7.08ZM988.61,361h-50l-9.74-30.56H995Zm75.94-.56H1015l-5.65-30h65.42Z" transform="translate(-568.07 -21.15)"/><polygon class="cls-8" points="352.56 895.74 377.65 943.57 395.36 936.92 367.61 890.28 352.56 895.74"/><path class="cls-8" d="M1080.47,962.64l-18.3-5.6,28.19-57.86,16.4,9.84S1092,946.7,1080.47,962.64Z" transform="translate(-568.07 -21.15)"/><rect class="cls-9" width="911.74" height="960.65"/></svg>