<svg id="Layer_1" data-name="Layer 1" xmlns="http://www.w3.org/2000/svg" viewBox="0 0 911.74 960.65"><defs><style>.cls-1{fill:#f4d100;}.cls-2,.cls-6{font-size:84px;}.cls-2,.cls-4,.cls-6,.cls-8{fill:#fff;}.cls-2{font-family:ArialMT, Arial;}.cls-3{fill:#3b5998;}.cls-4{font-size:62.1px;}.cls-4,.cls-6{font-family:MicrosoftNewTaiLue-Bold, Microsoft New Tai Lue;font-weight:700;}.cls-5{fill:#496fa5;}.cls-7{fill:#309bf2;}.cls-9{fill:#0cbc20;}.cls-10{fill:#f4f4f4;}.cls-11{fill:#4285f4;}.cls-12{fill:#34a853;}.cls-13{fill:#fbbc05;}.cls-14{fill:#ea4335;}.cls-15{fill:#d1605a;}.cls-16{fill:#333;}.cls-17,.cls-18{fill:none;}.cls-17{stroke:#000;stroke-miterlimit:10;stroke-width:0.75px;}</style></defs><circle class="cls-1" cx="832.01" cy="221.8" r="79.73"/><text class="cls-2" transform="translate(804.93 255.29)">₹</text><circle class="cls-3" cx="627.3" cy="390.97" r="44.47"/><text class="cls-4" transform="translate(613.99 417.52)">f</text><circle class="cls-5" cx="171.86" cy="110.78" r="63.75"/><text class="cls-6" transform="translate(132.07 142.06)">in</text><circle class="cls-7" cx="85.93" cy="574.01" r="85.93"/><path class="cls-8" d="M706.91,583.73l-7.29,8a63.18,63.18,0,0,0-15.11-12,57.32,57.32,0,0,0-56.31-.49A62.73,62.73,0,0,0,608.74,596l-8.24-7.54a73.54,73.54,0,0,1,5.26-6,70.35,70.35,0,0,1,95.44-4.15A72.08,72.08,0,0,1,706.91,583.73Z" transform="translate(-568.07 -21.15)"/><path class="cls-8" d="M692.28,599.71l-7.35,8a37,37,0,0,0-3.72-3.92,37.74,37.74,0,0,0-53.34,2.34,38.43,38.43,0,0,0-3.37,4.24l-8-7.34a50.05,50.05,0,0,1,3.43-4.18,48.54,48.54,0,0,1,68.59-3A49.07,49.07,0,0,1,692.28,599.71Z" transform="translate(-568.07 -21.15)"/><path class="cls-8" d="M677.54,615.81,670,624a16.21,16.21,0,0,0-29.19,1.29l-8.23-7.55a26.62,26.62,0,0,1,3.24-4.34,27,27,0,0,1,38.11-1.67A26.38,26.38,0,0,1,677.54,615.81Z" transform="translate(-568.07 -21.15)"/><circle class="cls-8" cx="87.65" cy="610.51" r="5.39"/><circle class="cls-9" cx="790.13" cy="557.42" r="85.93"/><path class="cls-8" d="M1339.61,530.89a61.38,61.38,0,0,0-8.67,18.13h-14.5A51.34,51.34,0,0,1,1339.61,530.89Z" transform="translate(-568.07 -21.15)"/><path class="cls-8" d="M1326.84,577.86a103.13,103.13,0,0,0,2.38,22.31h-17.4a51.28,51.28,0,0,1,1.81-46.73h16.08A102.15,102.15,0,0,0,1326.84,577.86Z" transform="translate(-568.07 -21.15)"/><path class="cls-8" d="M1341.15,626.8a51.3,51.3,0,0,1-27-22.21h16.16C1332.83,613.64,1336.58,621.31,1341.15,626.8Z" transform="translate(-568.07 -21.15)"/><path class="cls-8" d="M1402.24,604.59A51.25,51.25,0,0,1,1374.75,627c4.64-5.5,8.44-13.23,11-22.38Z" transform="translate(-568.07 -21.15)"/><path class="cls-8" d="M1409.35,578.56a51,51,0,0,1-4.77,21.61h-17.75a103.14,103.14,0,0,0,2.37-22.31,101.64,101.64,0,0,0-2.87-24.42h16.44A50.93,50.93,0,0,1,1409.35,578.56Z" transform="translate(-568.07 -21.15)"/><path class="cls-8" d="M1400,549h-14.85a61,61,0,0,0-8.82-18.32A51.33,51.33,0,0,1,1400,549Z" transform="translate(-568.07 -21.15)"/><path class="cls-8" d="M1379.58,604.59c-4.3,14.95-12.19,25-21.22,25.12H1358c-9-.12-16.93-10.17-21.23-25.12Z" transform="translate(-568.07 -21.15)"/><path class="cls-8" d="M1378.48,549h-40.56c4.47-13,11.81-21.5,20.12-21.61h.32C1366.67,527.52,1374,536,1378.48,549Z" transform="translate(-568.07 -21.15)"/><path class="cls-8" d="M1383,578.56a98.34,98.34,0,0,1-2.32,21.61h-45a98.34,98.34,0,0,1-2.32-21.61,95.68,95.68,0,0,1,3.2-25.12h43.28A96.11,96.11,0,0,1,1383,578.56Z" transform="translate(-568.07 -21.15)"/><circle class="cls-10" cx="158.48" cy="358.24" r="65.44"/><path class="cls-11" d="M770.05,380.36a49.2,49.2,0,0,0-.69-8.17H728.68v16.24H752a20,20,0,0,1-8.64,12.89v10.8h13.9C765.37,404.59,770.05,393.5,770.05,380.36Z" transform="translate(-568.07 -21.15)"/><path class="cls-12" d="M728.68,422.59c11.66,0,21.42-3.88,28.55-10.47l-13.9-10.8a26.08,26.08,0,0,1-14.65,4.17,25.79,25.79,0,0,1-24.23-17.86H690.12v11.13A43.13,43.13,0,0,0,728.68,422.59Z" transform="translate(-568.07 -21.15)"/><path class="cls-13" d="M704.45,387.63a25,25,0,0,1-1.37-8.24,26,26,0,0,1,1.37-8.25V360H690.12a42.67,42.67,0,0,0,0,38.74Z" transform="translate(-568.07 -21.15)"/><path class="cls-14" d="M728.68,353.29a23.42,23.42,0,0,1,16.56,6.48l12.31-12.32a41.31,41.31,0,0,0-28.87-11.26A43.13,43.13,0,0,0,690.12,360l14.33,11.12A25.79,25.79,0,0,1,728.68,353.29Z" transform="translate(-568.07 -21.15)"/><circle class="cls-15" cx="582.9" cy="72.54" r="72.54"/><rect class="cls-8" x="554.23" y="39.93" width="56.91" height="65.84"/><path class="cls-8" d="M1179.2,56v5.06h-56.91V56a6.32,6.32,0,0,1,6.32-6.32h44.26A6.32,6.32,0,0,1,1179.2,56Z" transform="translate(-568.07 -21.15)"/><path class="cls-8" d="M1122.29,126.92v8.14a6.32,6.32,0,0,0,6.32,6.32h44.26a6.32,6.32,0,0,0,6.33-6.32v-8.14Zm27.17,13a5.85,5.85,0,1,1,5.84-5.85A5.85,5.85,0,0,1,1149.46,139.93Z" transform="translate(-568.07 -21.15)"/><path class="cls-16" d="M1155.3,134.08a5.85,5.85,0,1,1-5.84-5.85A5.85,5.85,0,0,1,1155.3,134.08Z" transform="translate(-568.07 -21.15)"/><line class="cls-17" x1="572.96" y1="34.94" x2="590.98" y2="34.94"/><rect x="556.09" y="42.07" width="52.9" height="61.52"/><rect class="cls-18" width="911.74" height="960.65"/></svg>