<svg id="Layer_1" data-name="Layer 1" xmlns="http://www.w3.org/2000/svg" xmlns:xlink="http://www.w3.org/1999/xlink" viewBox="0 0 688.4 229.47"><defs><style>.cls-1{fill:url(#linear-gradient);}</style><linearGradient id="linear-gradient" x1="77.92" y1="208.92" x2="620.87" y2="522.39" gradientUnits="userSpaceOnUse"><stop offset="0" stop-color="#b92326"/><stop offset="0.2" stop-color="#b62326"/><stop offset="0.36" stop-color="#ac2427"/><stop offset="0.52" stop-color="#9b2428"/><stop offset="0.66" stop-color="#832529"/><stop offset="0.79" stop-color="#64262b"/><stop offset="0.92" stop-color="#3e282d"/><stop offset="1" stop-color="#25292e"/></linearGradient></defs><path class="cls-1" d="M693.6,365.66a114.78,114.78,0,0,1-163.15,104q-8.64-5.37-17.63-10.24a343.87,343.87,0,0,0-326.85,0q-9,4.86-17.62,10.24a114.74,114.74,0,1,1-1.22-208.63q9.7,6.06,19.83,11.49a345.06,345.06,0,0,0,47.7,21.09A344,344,0,0,0,349.4,313.22a344,344,0,0,0,114.73-19.57,345.18,345.18,0,0,0,47.71-21.09q10.11-5.43,19.82-11.49A114.75,114.75,0,0,1,693.6,365.66Z" transform="translate(-5.2 -250.92)"/></svg>