<svg id="Layer_1" data-name="Layer 1" xmlns="http://www.w3.org/2000/svg" viewBox="0 0 875.17 315.34"><defs><style>.cls-1{fill:#b92025;}.cls-2{fill: #acacac;}</style></defs><path class="cls-1" d="M174.26,530.67c-15.79-3.91-23.06-4.6-24.72-12.42-1.32-6.21,2.81-10.58,11.78-10.58H194l8.32-33.35H144.8c-28.29,0-42.29,20.7-36.47,48.07,3.81,17.94,13.54,26.91,33.3,33.35,11.6,3.68,18.13,4.14,20.09,13.34,1.37,6.44-1.07,13.34-6.9,18.4-5.28,4.37-14,5.29-26.24,5.29H78.44l-8.09,33.35h66.23c18.63,0,30.12-1.15,35.07-2.76,10.9-3.91,19.53-8.74,27.78-18.63,7.65-9.43,11-24.15,8-38.18C203.5,548.15,191.23,534.81,174.26,530.67Z" transform="translate(-70.35 -310.79)"/><path class="cls-1" d="M350,490.88c-2.1-9.89-11.56-16.56-25.36-16.56H275.44c-21.39,0-31.24,3.45-35.79,22.08L215,599.9a21.78,21.78,0,0,0-.71,9.66c2.11,9.89,11.34,16.56,25.14,16.56h49.22c21.62,0,31.42-3.68,35.79-22.08l25.15-103.5A21.07,21.07,0,0,0,350,490.88Zm-48.78,26.91-15.79,65.32c-1.62,6.44-5.31,9.66-11.52,9.66-6.44,0-10.19-2.53-11-6.44a8.29,8.29,0,0,1,0-4.14l15.65-64.86c1.62-6.44,5.77-9.66,12.67-9.66,5.52,0,9.32,2.76,10.15,6.67A8.75,8.75,0,0,1,301.24,517.79Z" transform="translate(-70.35 -310.79)"/><path class="cls-1" d="M488.3,491.11c-2.15-10.12-11.39-16.79-25.19-16.79H383.53l-7.86,33.35h54.74c5.29,0,8.59,2.53,9.47,6.67a8.71,8.71,0,0,1,0,3.45L413.73,626.12h43.7l30.35-125.58A21.14,21.14,0,0,0,488.3,491.11Z" transform="translate(-70.35 -310.79)"/><polygon class="cls-1" points="276.46 315.34 320.38 315.34 343.33 219.89 299.64 219.89 276.46 315.34"/><polygon class="cls-1" points="451.65 163.53 414.91 315.34 458.84 315.34 495.57 163.53 451.65 163.53"/><path class="cls-1" d="M666,474.32H623.65c-21.39,0-31.33,3-35.78,22.08L563,599.9a21.09,21.09,0,0,0-.48,9.66c2.1,9.89,11.34,16.56,25.14,16.56h45.77c21.62,0,31.33-3,35.78-22.08l2.67-11.27H620.54c-5.06,0-8.64-2.76-9.42-6.44a7.27,7.27,0,0,1,.14-3.68l12.64-52,2.91-13.34c1.35-6.67,5.77-9.66,13.36-9.66h48.76l1.7-7.13a21,21,0,0,0,.53-9.43C689,480.76,679.77,474.32,666,474.32Z" transform="translate(-70.35 -310.79)"/><path class="cls-2" d="M820.2,474.32,793.88,583.11q-2.45,9.66-11.75,9.66c-6.21,0-9.92-2.3-10.8-6.44a9.73,9.73,0,0,1,.12-4.83L797.2,474.32H753.27L722.92,599.9a21.21,21.21,0,0,0-.47,9.66c2.1,9.89,11.34,16.56,25.14,16.56h49.22c21.39,0,31.41-3.68,35.78-22.08L863.9,474.32Z" transform="translate(-70.35 -310.79)"/><polygon class="cls-2" points="821.38 163.53 784.65 315.34 828.58 315.34 865.31 163.53 821.38 163.53"/><rect class="cls-2" x="545.81" y="382.84" width="243.08" height="12.08" transform="translate(-163.22 -58.46) rotate(-20.05)"/><rect class="cls-1" x="778.93" y="384.57" width="162.82" height="12.08" transform="translate(247.17 -693.56) rotate(30.52)"/><circle class="cls-2" cx="485.62" cy="116.97" r="21.94"/><circle class="cls-1" cx="853.23" cy="117.09" r="21.94"/><circle class="cls-2" cx="713.25" cy="35.02" r="35.02"/><circle class="cls-1" cx="713.25" cy="35.02" r="23.62"/></svg>